<?xml version="1.0" encoding="UTF-8"?>
<!DOCTYPE svg PUBLIC "-//W3C//DTD SVG 1.1//EN" "http://www.w3.org/Graphics/SVG/1.1/DTD/svg11.dtd">
<svg xmlns="http://www.w3.org/2000/svg" version="1.1" width="128px" height="128px" style="shape-rendering:geometricPrecision; text-rendering:geometricPrecision; image-rendering:optimizeQuality; fill-rule:evenodd; clip-rule:evenodd" xmlns:xlink="http://www.w3.org/1999/xlink">
<g><path style="opacity:0.783" fill="#fefffe" d="M 127.5,48.5 C 127.5,59.8333 127.5,71.1667 127.5,82.5C 126.312,83.6843 125.145,83.6843 124,82.5C 123.5,72.5056 123.334,62.5056 123.5,52.5C 113.167,52.5 102.833,52.5 92.5,52.5C 92.5,65.5 92.5,78.5 92.5,91.5C 102.833,91.5 113.167,91.5 123.5,91.5C 123.5,90.1667 123.5,88.8333 123.5,87.5C 124.833,87.5 126.167,87.5 127.5,87.5C 127.5,95.8333 127.5,104.167 127.5,112.5C 114.909,113.646 102.242,113.812 89.5,113C 88.5183,105.253 88.185,97.4197 88.5,89.5C 82.1667,89.5 75.8333,89.5 69.5,89.5C 70.0307,97.0967 74.0307,101.263 81.5,102C 85.2118,104.602 86.3785,108.102 85,112.5C 65.9067,113.659 46.74,113.826 27.5,113C 25.1627,110.407 24.996,107.574 27,104.5C 31.2508,102.603 35.2508,100.27 39,97.5C 40.7068,95.0912 41.5402,92.4245 41.5,89.5C 28.8289,89.6666 16.1623,89.4999 3.5,89C 2.01608,88.3378 0.682751,87.5045 -0.5,86.5C -0.5,80.8333 -0.5,75.1667 -0.5,69.5C 0.687867,68.3157 1.85453,68.3157 3,69.5C 3.19483,74.4179 3.69483,79.2512 4.5,84C 32.498,84.5 60.498,84.6666 88.5,84.5C 88.5,83.5 88.5,82.5 88.5,81.5C 61.4979,81.6666 34.4979,81.5 7.5,81C 6.3409,61.5733 6.17424,42.0733 7,22.5C 7.5,22 8,21.5 8.5,21C 34.1667,20.3333 59.8333,20.3333 85.5,21C 87.3937,22.0793 87.727,23.4126 86.5,25C 61.5022,25.5 36.5022,25.6666 11.5,25.5C 11.5,42.5 11.5,59.5 11.5,76.5C 37.1667,76.5 62.8333,76.5 88.5,76.5C 88.1684,67.1429 88.5017,57.8096 89.5,48.5C 93.0938,47.5741 96.7604,47.2408 100.5,47.5C 100.5,40.1667 100.5,32.8333 100.5,25.5C 97.5,25.5 94.5,25.5 91.5,25.5C 91.2865,23.8561 91.6198,22.3561 92.5,21C 96.2255,20.2401 99.8922,20.4068 103.5,21.5C 104.498,30.1411 104.831,38.8078 104.5,47.5C 105.5,47.5 106.5,47.5 107.5,47.5C 107.5,37.8333 107.5,28.1667 107.5,18.5C 72.8333,18.5 38.1667,18.5 3.5,18.5C 3.5,33.8333 3.5,49.1667 3.5,64.5C 2.16667,64.5 0.833333,64.5 -0.5,64.5C -0.5,48.1667 -0.5,31.8333 -0.5,15.5C 0.28913,15.2172 0.955796,14.7172 1.5,14C 37.5,13.3333 73.5,13.3333 109.5,14C 110.701,14.9025 111.535,16.0692 112,17.5C 112.5,27.4944 112.666,37.4944 112.5,47.5C 117.562,47.2743 122.562,47.6076 127.5,48.5 Z M 99.5,61.5 C 105.5,61.5 111.5,61.5 117.5,61.5C 117.5,62.5 117.5,63.5 117.5,64.5C 111.5,64.5 105.5,64.5 99.5,64.5C 99.5,63.5 99.5,62.5 99.5,61.5 Z M 46.5,89.5 C 52.5368,89.1707 58.5368,89.5041 64.5,90.5C 65.2523,94.0951 66.5856,97.4285 68.5,100.5C 59.8525,101.665 51.1858,101.832 42.5,101C 45.3197,97.7084 46.6531,93.8751 46.5,89.5 Z M 92.5,96.5 C 102.833,96.5 113.167,96.5 123.5,96.5C 123.5,100.5 123.5,104.5 123.5,108.5C 116.492,108.666 109.492,108.5 102.5,108C 107.329,105.163 107.663,101.829 103.5,98C 96.3041,96.8574 93.8041,99.6907 96,106.5C 96.7504,107.126 97.5838,107.626 98.5,108C 96.5273,108.495 94.5273,108.662 92.5,108.5C 92.5,104.5 92.5,100.5 92.5,96.5 Z M 31.5,106.5 C 47.9883,106.016 64.3216,106.516 80.5,108C 72.3333,108.167 64.1667,108.333 56,108.5C 47.4716,108.498 39.3049,107.831 31.5,106.5 Z"/></g>
<g><path style="opacity:0.829" fill="#fefffe" d="M 95.5,57.5 C 103.84,57.3336 112.173,57.5003 120.5,58C 121.791,61.4553 121.791,64.9553 120.5,68.5C 112.549,69.6349 104.549,69.8016 96.5,69C 94.2297,65.3904 93.8963,61.5571 95.5,57.5 Z M 99.5,61.5 C 99.5,62.5 99.5,63.5 99.5,64.5C 105.5,64.5 111.5,64.5 117.5,64.5C 117.5,63.5 117.5,62.5 117.5,61.5C 111.5,61.5 105.5,61.5 99.5,61.5 Z"/></g>
<g><path style="opacity:0.718" fill="#fefffe" d="M 95.5,70.5 C 104.167,70.5 112.833,70.5 121.5,70.5C 121.714,72.1439 121.38,73.6439 120.5,75C 112.167,75.6667 103.833,75.6667 95.5,75C 94.2721,73.5098 94.2721,72.0098 95.5,70.5 Z"/></g>
</svg>
