<?xml version="1.0" encoding="UTF-8"?>
<!DOCTYPE svg PUBLIC "-//W3C//DTD SVG 1.1//EN" "http://www.w3.org/Graphics/SVG/1.1/DTD/svg11.dtd">
<svg xmlns="http://www.w3.org/2000/svg" version="1.1" width="128px" height="128px" style="shape-rendering:geometricPrecision; text-rendering:geometricPrecision; image-rendering:optimizeQuality; fill-rule:evenodd; clip-rule:evenodd" xmlns:xlink="http://www.w3.org/1999/xlink">
<g><path style="opacity:0.814" fill="#fefffe" d="M 127.5,22.5 C 127.5,50.1667 127.5,77.8333 127.5,105.5C 126.193,106.153 124.86,106.82 123.5,107.5C 105.075,102.237 87.4086,104.071 70.5,113C 65.8333,113.667 61.1667,113.667 56.5,113C 39.5914,104.071 21.9248,102.237 3.5,107.5C 2.14011,106.82 0.806777,106.153 -0.5,105.5C -0.5,77.8333 -0.5,50.1667 -0.5,22.5C 2.62969,20.9774 5.96302,20.3107 9.5,20.5C 9.87393,17.1116 11.8739,15.2782 15.5,15C 32.8166,11.0516 48.8166,13.8849 63.5,23.5C 78.1834,13.8849 94.1834,11.0516 111.5,15C 115.126,15.2782 117.126,17.1116 117.5,20.5C 121.037,20.3107 124.37,20.9774 127.5,22.5 Z M 21.5,18.5 C 33.3824,17.2173 44.7157,19.0506 55.5,24C 57.6089,25.1411 59.4422,26.6411 61,28.5C 61.6667,51.8333 61.6667,75.1667 61,98.5C 55.3384,94.7525 49.1718,92.2525 42.5,91C 33.1476,90.3495 23.8143,90.5161 14.5,91.5C 14.6666,74.83 14.4999,58.1633 14,41.5C 12.6439,40.6198 11.1439,40.2865 9.5,40.5C 9.33339,58.5031 9.50006,76.5031 10,94.5C 10.5,95 11,95.5 11.5,96C 18.1915,96.1648 24.8581,95.6648 31.5,94.5C 35.173,94.9533 38.8396,95.4533 42.5,96C 49.7671,98.3046 56.7671,101.138 63.5,104.5C 70.2329,101.138 77.2329,98.3046 84.5,96C 88.1604,95.4533 91.827,94.9533 95.5,94.5C 102.142,95.6648 108.809,96.1648 115.5,96C 116,95.5 116.5,95 117,94.5C 117.5,87.1742 117.666,79.8409 117.5,72.5C 115.856,72.2865 114.356,72.6198 113,73.5C 112.501,79.4908 112.334,85.4908 112.5,91.5C 100.385,89.7326 88.385,90.2326 76.5,93C 72.9212,94.7059 69.4212,96.5392 66,98.5C 65.3333,75.1667 65.3333,51.8333 66,28.5C 71.7299,23.053 78.5633,19.8863 86.5,19C 94.8805,18.213 103.214,18.5464 111.5,20C 112.325,35.4257 112.825,50.9257 113,66.5C 114.356,67.3802 115.856,67.7135 117.5,67.5C 117.333,53.1628 117.5,38.8295 118,24.5C 119.667,25.1667 121.333,25.8333 123,26.5C 123.833,51.8399 123.666,77.1732 122.5,102.5C 104.179,97.8173 86.5126,99.6506 69.5,108C 65.5,108.667 61.5,108.667 57.5,108C 40.4874,99.6506 22.8207,97.8173 4.5,102.5C 3.33351,77.1732 3.16684,51.8399 4,26.5C 5.66667,25.8333 7.33333,25.1667 9,24.5C 9.33333,28.1667 9.66667,31.8333 10,35.5C 11.5874,36.727 12.9207,36.3937 14,34.5C 14.3333,29.8333 14.6667,25.1667 15,20.5C 17.277,19.8828 19.4437,19.2161 21.5,18.5 Z"/></g>
<g><path style="opacity:0.755" fill="#fefffe" d="M 22.5,27.5 C 34.8028,26.4387 46.4695,28.6054 57.5,34C 58.3802,35.3561 58.7135,36.8561 58.5,38.5C 52.2963,36.3784 45.963,34.5451 39.5,33C 32.9616,32.2248 26.4616,32.3914 20,33.5C 17.8434,32.615 17.0101,30.9484 17.5,28.5C 19.4147,28.7845 21.0813,28.4511 22.5,27.5 Z"/></g>
<g><path style="opacity:0.755" fill="#fefffe" d="M 88.5,27.5 C 95.5293,27.3769 102.529,27.7103 109.5,28.5C 109.99,30.9484 109.157,32.615 107,33.5C 100.538,32.3914 94.0384,32.2248 87.5,33C 81.037,34.5451 74.7037,36.3784 68.5,38.5C 68.2865,36.8561 68.6198,35.3561 69.5,34C 75.5905,30.738 81.9238,28.5713 88.5,27.5 Z"/></g>
<g><path style="opacity:0.785" fill="#fefffe" d="M 19.5,43.5 C 28.5586,43.1541 37.5586,43.6541 46.5,45C 50.3678,46.0114 54.0345,47.5114 57.5,49.5C 58.9039,51.5471 58.5706,53.2138 56.5,54.5C 44.1518,48.4024 31.1518,46.4024 17.5,48.5C 17.3653,46.4458 18.032,44.7791 19.5,43.5 Z"/></g>
<g><path style="opacity:0.781" fill="#fefffe" d="M 85.5,43.5 C 92.8409,43.3337 100.174,43.5003 107.5,44C 109.107,45.049 109.773,46.549 109.5,48.5C 95.229,46.5862 81.5623,48.5862 68.5,54.5C 68.2148,52.712 68.5481,51.0453 69.5,49.5C 74.7269,46.8734 80.0602,44.8734 85.5,43.5 Z"/></g>
<g><path style="opacity:0.755" fill="#fefffe" d="M 23.5,58.5 C 35.4476,57.6574 46.781,59.8241 57.5,65C 58.3802,66.3561 58.7135,67.8561 58.5,69.5C 52.0112,67.1727 45.3445,65.3393 38.5,64C 32.4681,63.2522 26.4681,63.4189 20.5,64.5C 17.9147,63.9272 16.9147,62.2605 17.5,59.5C 19.7354,59.7947 21.7354,59.4614 23.5,58.5 Z"/></g>
<g><path style="opacity:0.755" fill="#fefffe" d="M 89.5,58.5 C 96.1908,58.4542 102.857,58.7875 109.5,59.5C 110.085,62.2605 109.085,63.9272 106.5,64.5C 100.532,63.4189 94.5319,63.2522 88.5,64C 81.6555,65.3393 74.9888,67.1727 68.5,69.5C 68.2865,67.8561 68.6198,66.3561 69.5,65C 75.893,61.5773 82.5597,59.4106 89.5,58.5 Z"/></g>
<g><path style="opacity:0.762" fill="#fefffe" d="M 19.5,74.5 C 32.775,73.0065 45.4417,75.0065 57.5,80.5C 58.4519,82.0453 58.7852,83.712 58.5,85.5C 45.3899,79.7099 31.7233,77.7099 17.5,79.5C 17.3653,77.4458 18.032,75.7791 19.5,74.5 Z"/></g>
<g><path style="opacity:0.762" fill="#fefffe" d="M 85.5,74.5 C 92.8409,74.3337 100.174,74.5003 107.5,75C 109.107,76.049 109.773,77.549 109.5,79.5C 95.2767,77.7099 81.6101,79.7099 68.5,85.5C 68.2148,83.712 68.5481,82.0453 69.5,80.5C 74.722,77.8748 80.0554,75.8748 85.5,74.5 Z"/></g>
</svg>
