<?xml version="1.0" encoding="UTF-8"?>
<!DOCTYPE svg PUBLIC "-//W3C//DTD SVG 1.1//EN" "http://www.w3.org/Graphics/SVG/1.1/DTD/svg11.dtd">
<svg xmlns="http://www.w3.org/2000/svg" version="1.1" width="128px" height="128px" style="shape-rendering:geometricPrecision; text-rendering:geometricPrecision; image-rendering:optimizeQuality; fill-rule:evenodd; clip-rule:evenodd" xmlns:xlink="http://www.w3.org/1999/xlink">
<g><path style="opacity:0.787" fill="#000000" d="M 127.5,38.5 C 127.5,41.1667 127.5,43.8333 127.5,46.5C 121.901,52.0171 116.901,51.5171 112.5,45C 110.5,44.3333 108.5,44.3333 106.5,45C 103.145,49.3518 99.4786,53.3518 95.5,57C 86.5062,57.4998 77.5062,57.6664 68.5,57.5C 68.5,61.5 68.5,65.5 68.5,69.5C 77.5062,69.3336 86.5062,69.5002 95.5,70C 99.4786,73.6482 103.145,77.6482 106.5,82C 110.798,83.4596 113.798,82.1262 115.5,78C 120.067,76.0205 124.067,76.8538 127.5,80.5C 127.5,83.1667 127.5,85.8333 127.5,88.5C 122.917,93.8112 118.25,93.8112 113.5,88.5C 110.553,87.6786 107.553,87.1786 104.5,87C 100.6,83.1896 96.9336,79.1896 93.5,75C 85.1733,74.5003 76.84,74.3336 68.5,74.5C 68.5,76.8333 68.5,79.1667 68.5,81.5C 77.5062,81.3336 86.5062,81.5002 95.5,82C 97.2932,84.7953 99.4598,87.2953 102,89.5C 101.57,94.7999 103.237,99.1332 107,102.5C 108.886,107.18 107.72,111.013 103.5,114C 97.0743,115.459 93.4077,112.959 92.5,106.5C 93.5603,102.637 95.2269,99.1374 97.5,96C 97.2028,91.6908 95.2028,88.3575 91.5,86C 83.8406,85.5003 76.1739,85.3336 68.5,85.5C 68.5,88.5 68.5,91.5 68.5,94.5C 71.8499,94.335 75.1832,94.5017 78.5,95C 79.1667,96 79.8333,97 80.5,98C 90.4878,99.6358 92.8211,104.636 87.5,113C 82.8144,115.529 78.9811,114.696 76,110.5C 75.5182,107.093 75.5182,103.76 76,100.5C 73.6194,99.565 71.1194,99.2317 68.5,99.5C 68.6661,105.176 68.4994,110.843 68,116.5C 61.8478,125.98 53.8478,127.98 44,122.5C 35.4744,125.786 28.4744,123.786 23,116.5C 21.7978,114.323 21.2978,111.989 21.5,109.5C 8.30575,106.123 3.63908,97.7896 7.5,84.5C 4.42975,81.4362 1.76308,78.1029 -0.5,74.5C -0.5,70.8333 -0.5,67.1667 -0.5,63.5C 0.896142,60.9152 2.56281,58.4152 4.5,56C 0.90225,45.6252 3.90225,37.7918 13.5,32.5C 13.2793,16.8794 20.7793,9.87941 36,11.5C 40.7208,3.06053 47.8874,-0.106133 57.5,2C 67.9695,7.28515 71.6362,15.7851 68.5,27.5C 71.1194,27.7683 73.6194,27.435 76,26.5C 75.5182,23.24 75.5182,19.9066 76,16.5C 79.1676,12.4668 83.0009,11.6335 87.5,14C 92.7757,22.4515 90.4423,27.4515 80.5,29C 79.8333,30 79.1667,31 78.5,32C 75.1832,32.4983 71.8499,32.665 68.5,32.5C 68.5,35.5 68.5,38.5 68.5,41.5C 76.1739,41.6664 83.8406,41.4997 91.5,41C 98.2789,36.5717 99.1123,31.4051 94,25.5C 90.9761,15.5271 94.4761,11.6938 104.5,14C 107.394,16.9087 108.227,20.4087 107,24.5C 103.237,27.8668 101.57,32.2001 102,37.5C 99.4598,39.7047 97.2932,42.2047 95.5,45C 86.5062,45.4998 77.5062,45.6664 68.5,45.5C 68.5,47.8333 68.5,50.1667 68.5,52.5C 76.84,52.6664 85.1733,52.4997 93.5,52C 97.2026,48.6325 100.536,44.9658 103.5,41C 106.77,40.0052 110.103,39.1719 113.5,38.5C 118.203,33.1764 122.87,33.1764 127.5,38.5 Z M 47.5,6.5 C 53.386,5.3435 58.2193,7.01017 62,11.5C 63.4432,20.3921 63.9432,29.3921 63.5,38.5C 60.1362,37.2215 56.8029,37.3882 53.5,39C 50.6967,41.2217 50.8634,43.0551 54,44.5C 57.0653,42.0174 60.0653,42.0174 63,44.5C 63.4994,50.1569 63.6661,55.8236 63.5,61.5C 60.4816,61.3354 57.4816,61.502 54.5,62C 51.9194,63.8407 51.9194,65.6741 54.5,67.5C 57.4487,65.2315 60.282,65.2315 63,67.5C 63.6667,83.1667 63.6667,98.8333 63,114.5C 59.5362,120.452 54.7029,121.952 48.5,119C 52.6533,113.846 52.4866,109.013 48,104.5C 47.228,104.645 46.5613,104.978 46,105.5C 47.4096,116.728 42.5762,120.894 31.5,118C 28.4955,115.654 26.4955,112.654 25.5,109C 29.7217,107.974 33.2217,105.807 36,102.5C 37.2542,98.8886 36.0876,97.3886 32.5,98C 26.25,106.349 19.75,106.516 13,98.5C 10.0071,93.7281 10.3404,89.0615 14,84.5C 14.4935,82.8659 14.6602,81.1992 14.5,79.5C 4.69604,77.219 1.8627,71.5523 6,62.5C 10.7935,57.2204 15.6269,57.2204 20.5,62.5C 23.2104,59.7852 22.8771,57.2852 19.5,55C 15.9015,53.9861 12.2348,53.1527 8.5,52.5C 6.9045,45.353 9.4045,40.0197 16,36.5C 19.8605,40.8129 24.1939,41.4796 29,38.5C 29.6172,37.5509 29.4506,36.7175 28.5,36C 26.1667,35.6667 23.8333,35.3333 21.5,35C 17.4166,26.7139 19.4166,20.3806 27.5,16C 38.7149,13.753 44.0482,18.253 43.5,29.5C 47.1336,29.8436 48.8003,28.1769 48.5,24.5C 48.1193,19.2386 45.786,15.0719 41.5,12C 43.3962,9.93204 45.3962,8.0987 47.5,6.5 Z M 81.5,17.5 C 83.9477,17.0847 85.2811,18.0847 85.5,20.5C 83.8076,24.1771 81.8076,24.3438 79.5,21C 80.305,19.8873 80.9717,18.7206 81.5,17.5 Z M 98.5,17.5 C 103.89,18.2497 104.557,20.2497 100.5,23.5C 97.6095,22.1627 96.9428,20.1627 98.5,17.5 Z M 118.5,39.5 C 123.939,40.2202 124.605,42.2202 120.5,45.5C 117.531,44.2351 116.865,42.2351 118.5,39.5 Z M 119.5,81.5 C 121.484,81.484 122.484,82.484 122.5,84.5C 122.566,86.2664 121.732,87.2664 120,87.5C 116.911,85.7956 116.745,83.7956 119.5,81.5 Z M 81.5,103.5 C 85.0131,104.028 86.0131,105.862 84.5,109C 79.7217,109.073 78.7217,107.24 81.5,103.5 Z M 99.5,103.5 C 104.021,105.437 104.188,107.437 100,109.5C 96.9113,107.796 96.7446,105.796 99.5,103.5 Z"/></g>
<g><path style="opacity:0.741" fill="#000000" d="M 32.5,46.5 C 37.503,46.0851 41.6696,47.7518 45,51.5C 45.8542,53.6073 45.1875,54.9407 43,55.5C 40.755,53.3775 38.0884,52.0442 35,51.5C 32.863,52.0767 30.6963,52.41 28.5,52.5C 27.933,49.0886 29.2663,47.0886 32.5,46.5 Z"/></g>
<g><path style="opacity:0.734" fill="#000000" d="M 24.5,71.5 C 25.4959,71.4142 26.3292,71.7476 27,72.5C 26.9221,77.3552 29.0888,80.6886 33.5,82.5C 34.4287,83.6888 34.762,85.0222 34.5,86.5C 27.6053,86.4451 23.6053,82.9451 22.5,76C 22.5186,74.167 23.1852,72.667 24.5,71.5 Z"/></g>
<g><path style="opacity:0.727" fill="#000000" d="M 39.5,71.5 C 43.0379,71.2153 44.8712,72.882 45,76.5C 47.2949,78.9378 50.1283,80.4378 53.5,81C 54.4506,81.7175 54.6172,82.5509 54,83.5C 43.9461,85.9528 39.1127,81.9528 39.5,71.5 Z"/></g>
</svg>
