<?xml version="1.0" encoding="UTF-8"?>
<!DOCTYPE svg PUBLIC "-//W3C//DTD SVG 1.1//EN" "http://www.w3.org/Graphics/SVG/1.1/DTD/svg11.dtd">
<svg xmlns="http://www.w3.org/2000/svg" version="1.1" width="128px" height="128px" style="shape-rendering:geometricPrecision; text-rendering:geometricPrecision; image-rendering:optimizeQuality; fill-rule:evenodd; clip-rule:evenodd" xmlns:xlink="http://www.w3.org/1999/xlink">
<g><path style="opacity:0.787" fill="#fefffe" d="M 127.5,98.5 C 127.5,101.5 127.5,104.5 127.5,107.5C 125.588,111.905 122.255,114.739 117.5,116C 81.5,116.667 45.5,116.667 9.5,116C 4.74518,114.739 1.41184,111.905 -0.5,107.5C -0.5,104.5 -0.5,101.5 -0.5,98.5C 1.91275,96.9493 4.57942,96.2826 7.5,96.5C 7.33337,74.4975 7.50004,52.4975 8,30.5C 8.78451,28.714 9.95118,27.214 11.5,26C 16.4889,25.5007 21.4889,25.3341 26.5,25.5C 26.3345,21.4862 26.5012,17.4862 27,13.5C 39.552,8.88536 51.7186,9.88536 63.5,16.5C 75.2814,9.88536 87.448,8.88536 100,13.5C 100.499,17.4862 100.666,21.4862 100.5,25.5C 105.511,25.3341 110.511,25.5007 115.5,26C 117.049,27.214 118.215,28.714 119,30.5C 119.5,52.4975 119.667,74.4975 119.5,96.5C 122.421,96.2826 125.087,96.9493 127.5,98.5 Z M 33.5,15.5 C 38.5111,15.3341 43.5111,15.5007 48.5,16C 53.2051,16.6769 57.3718,18.5103 61,21.5C 61.6667,38.5 61.6667,55.5 61,72.5C 51.6504,67.7413 41.8171,66.408 31.5,68.5C 30.8682,50.5964 31.5349,32.9298 33.5,15.5 Z M 78.5,15.5 C 83.8968,15.2154 89.2302,15.5488 94.5,16.5C 95.3324,27.4849 95.8324,38.4849 96,49.5C 97.3333,50.8333 98.6667,50.8333 100,49.5C 100.499,45.8484 100.665,42.1817 100.5,38.5C 102.5,38.5 104.5,38.5 106.5,38.5C 106.5,54.8333 106.5,71.1667 106.5,87.5C 77.8333,87.5 49.1667,87.5 20.5,87.5C 20.5,85.1667 20.5,82.8333 20.5,80.5C 19.1667,80.5 17.8333,80.5 16.5,80.5C 16.2065,84.4367 16.5399,88.27 17.5,92C 48.1667,92.6667 78.8333,92.6667 109.5,92C 110.659,73.2401 110.825,54.4068 110,35.5C 107.096,33.7732 103.93,33.1065 100.5,33.5C 100.5,32.1667 100.5,30.8333 100.5,29.5C 104.182,29.3347 107.848,29.5014 111.5,30C 112.416,30.3742 113.25,30.8742 114,31.5C 114.5,53.1641 114.667,74.8308 114.5,96.5C 80.5,96.5 46.5,96.5 12.5,96.5C 12.3334,74.8308 12.5,53.1641 13,31.5C 13.7504,30.8742 14.5838,30.3742 15.5,30C 19.1516,29.5014 22.8183,29.3347 26.5,29.5C 26.5,30.8333 26.5,32.1667 26.5,33.5C 23.0703,33.1065 19.9036,33.7732 17,35.5C 16.5001,49.1626 16.3334,62.8293 16.5,76.5C 17.8333,76.5 19.1667,76.5 20.5,76.5C 20.5,63.8333 20.5,51.1667 20.5,38.5C 22.5,38.5 24.5,38.5 26.5,38.5C 26.3335,50.8378 26.5001,63.1712 27,75.5C 27.2735,77.3289 28.1068,78.8289 29.5,80C 35.1547,79.8024 40.8213,79.8024 46.5,80C 52.2874,81.5405 57.9541,83.3738 63.5,85.5C 69.0459,83.3738 74.7126,81.5405 80.5,80C 86.1787,79.8024 91.8453,79.8024 97.5,80C 98.8932,78.8289 99.7265,77.3289 100,75.5C 100.667,68.8333 100.667,62.1667 100,55.5C 98.6667,54.1667 97.3333,54.1667 96,55.5C 95.501,59.8206 95.3343,64.1539 95.5,68.5C 85.1829,66.408 75.3496,67.7413 66,72.5C 65.3333,55.5 65.3333,38.5 66,21.5C 69.8422,18.6195 74.0089,16.6195 78.5,15.5 Z M 34.5,72.5 C 44.7698,71.6872 54.4365,73.6872 63.5,78.5C 72.563,73.5208 82.2297,71.6875 92.5,73C 93.624,73.2492 94.624,73.7492 95.5,74.5C 84.3983,73.8909 73.7316,75.8909 63.5,80.5C 53.2684,75.8909 42.6017,73.8909 31.5,74.5C 32.6016,73.8243 33.6016,73.1577 34.5,72.5 Z M 3.5,101.5 C 16.1667,101.5 28.8333,101.5 41.5,101.5C 41.1043,104.044 41.771,106.211 43.5,108C 56.8333,108.667 70.1667,108.667 83.5,108C 85.229,106.211 85.8957,104.044 85.5,101.5C 98.1842,101.168 110.851,101.501 123.5,102.5C 122.837,106.341 120.837,109.175 117.5,111C 81.5,111.667 45.5,111.667 9.5,111C 5.86537,108.904 3.86537,105.737 3.5,101.5 Z M 45.5,102.5 C 57.3262,101.34 69.3262,101.174 81.5,102C 81.0426,102.414 80.7093,102.914 80.5,103.5C 74.8333,103.833 69.1667,104.167 63.5,104.5C 57.2588,104.456 51.2588,103.789 45.5,102.5 Z"/></g>
<g><path style="opacity:0.721" fill="#fefffe" d="M 38.5,25.5 C 45.1512,24.7776 51.3178,26.1109 57,29.5C 57.6838,30.7839 57.5171,31.9505 56.5,33C 52.3555,31.9153 48.0222,31.0819 43.5,30.5C 41.4404,30.5716 39.4404,30.9049 37.5,31.5C 35.7826,30.3315 35.1159,28.6648 35.5,26.5C 36.791,26.7373 37.791,26.404 38.5,25.5 Z"/></g>
<g><path style="opacity:0.721" fill="#fefffe" d="M 78.5,25.5 C 82.8814,25.3718 87.2147,25.7051 91.5,26.5C 91.8841,28.6648 91.2174,30.3315 89.5,31.5C 83.5323,29.8629 77.8656,30.5296 72.5,33.5C 69.9185,33.2534 69.0851,31.92 70,29.5C 72.7383,27.7112 75.5716,26.3779 78.5,25.5 Z"/></g>
<g><path style="opacity:0.742" fill="#fefffe" d="M 37.5,38.5 C 43.7316,37.9386 49.7316,38.772 55.5,41C 58.3033,43.2217 58.1366,45.0551 55,46.5C 48.8625,42.8354 42.3625,41.8354 35.5,43.5C 35.3653,41.4458 36.032,39.7791 37.5,38.5 Z"/></g>
<g><path style="opacity:0.735" fill="#fefffe" d="M 76.5,38.5 C 80.8461,38.3343 85.1794,38.501 89.5,39C 91.1066,40.049 91.7733,41.549 91.5,43.5C 84.6375,41.8354 78.1375,42.8354 72,46.5C 69.8125,45.9407 69.1458,44.6073 70,42.5C 72.0129,40.7518 74.1795,39.4185 76.5,38.5 Z"/></g>
<g><path style="opacity:0.741" fill="#fefffe" d="M 41.5,50.5 C 46.4464,50.5888 51.1131,51.7555 55.5,54C 58.318,56.1151 58.1514,57.9484 55,59.5C 48.987,55.4741 42.487,54.4741 35.5,56.5C 35.3433,55.1266 35.51,53.7932 36,52.5C 37.9483,51.8906 39.7816,51.224 41.5,50.5 Z"/></g>
<g><path style="opacity:0.74" fill="#fefffe" d="M 80.5,50.5 C 83.8738,50.6744 87.2072,51.1744 90.5,52C 91.3802,53.3561 91.7135,54.8561 91.5,56.5C 84.513,54.4741 78.013,55.4741 72,59.5C 70.1153,58.6867 69.4487,57.3533 70,55.5C 73.1466,52.8409 76.6466,51.1743 80.5,50.5 Z"/></g>
</svg>
