<?xml version="1.0" encoding="UTF-8"?>
<!DOCTYPE svg PUBLIC "-//W3C//DTD SVG 1.1//EN" "http://www.w3.org/Graphics/SVG/1.1/DTD/svg11.dtd">
<svg xmlns="http://www.w3.org/2000/svg" version="1.1" width="128px" height="128px" style="shape-rendering:geometricPrecision; text-rendering:geometricPrecision; image-rendering:optimizeQuality; fill-rule:evenodd; clip-rule:evenodd" xmlns:xlink="http://www.w3.org/1999/xlink">
<g><path style="opacity:0.924" fill="#fefffe" d="M 127.5,23.5 C 127.5,26.5 127.5,29.5 127.5,32.5C 103.062,57.4384 78.3954,82.2717 53.5,107C 51.1187,108.766 48.452,109.932 45.5,110.5C 42.548,109.932 39.8813,108.766 37.5,107C 24.6042,94.2716 11.9375,81.4383 -0.5,68.5C -0.5,65.1667 -0.5,61.8333 -0.5,58.5C 3.43159,53.4338 8.43159,51.9338 14.5,54C 24.9847,63.6508 35.318,73.4841 45.5,83.5C 66.9862,62.5139 88.3195,41.3472 109.5,20C 116.61,15.322 122.61,16.4886 127.5,23.5 Z"/></g>
</svg>
